<svg data-name="Layer 1" xmlns="http://www.w3.org/2000/svg" viewBox="183.93 25.35 497.81 630.39"><path d="M534.23 622.47h-9s-5.52 21.82 11.69 19.74l7-2.52s-7.81-8.92-9.69-17.22Z" fill="#f9b499"/><path d="M606.5 637.93s-.36 13.78 29.82 11.39c0 0 18.68 1.86 31.77-.36 7.47-1.26 13.36-7.41 13.64-15a15.46 15.46 0 0 0-2.35-8.81 17.65 17.65 0 0 0-16-7.22l-26.19 2.77-21.84-3.61Z" fill="#106bca"/><path d="m621 642.21-28.28-9.8 9.8-24.27 23.76 12.58s6.38 12.19-5.28 21.49Z" fill="#f9b499"/><rect x="183.93" y="25.35" width="325.13" height="622.75" rx="25.71" fill="#2f2e41"/><rect x="190.42" y="29.03" width="312.38" height="613.18" rx="23.73" fill="#ccc"/><path d="m490.49 536.11 3.4-43.74-2.63 5.28c-17.81 7.17-42.25-7.16-42.25-7.16l21.12-47.9s6.55-21.66 42.12-21c0 0 69.12 4.42 77.8 19.88l2.64 22.25L581 479.49a64 64 0 0 0-12.27 32.16c-.93 10.14-1.43 22.42.22 31.63.05 0-54.7 7.92-78.46-7.17Z" fill="#106bca"/><path d="M573.83 433.54c-3.87 17.69-20.61 21.51-20.61 21.51-35.33 5.16-43.06-27.42-43.06-27.42-1.1-9.93 13.67-9.25 13.67-9.25l14.83-18.54 20.67 3.68Z" fill="#f9b499"/><path d="M506.6 145.15h1a6.36 6.36 0 0 1 6.36 6.36v34.76a6.36 6.36 0 0 1-6.36 6.36h-1v-47.48Zm0 60.61h1a6.36 6.36 0 0 1 6.36 6.36V273a6.36 6.36 0 0 1-6.36 6.36h-1v-73.6Z" fill="#2f2e41"/><path d="M448.33 171.47a99.75 99.75 0 1 1-99.75-99.74 99.34 99.34 0 0 1 99.75 99.74Z" fill="#bcbec0"/><path d="M424.51 236.15a99.73 99.73 0 0 1-150.64 1.38c5.11-28.31 36.95-50.11 75.45-50.11 37.88 0 69.3 21.1 75.19 48.73Zm-51.38-83.46a24.66 24.66 0 1 1-35-22.4 18.42 18.42 0 1 1 19.43-.5 24.65 24.65 0 0 1 15.57 22.9Z" fill="#ccc"/><rect x="205.41" y="312.43" width="284.14" height="48.58" rx="11.57" fill="#bcbec0"/><rect x="207.12" y="372.06" width="284.14" height="48.58" rx="11.57" fill="#bcbec0"/><rect x="223.81" y="330.84" width="125.37" height="11.04" rx="5.52" fill="#fff"/><rect x="364.18" y="331.2" width="74.58" height="11.04" rx="5.52" fill="#fff"/><circle cx="230.38" cy="397.51" r="5.7" fill="#fff"/><circle cx="253.69" cy="397.51" r="5.7" fill="#fff"/><circle cx="276.81" cy="397.51" r="5.7" fill="#fff"/><circle cx="301.11" cy="397.51" r="5.7" fill="#fff"/><circle cx="323.81" cy="397.51" r="5.7" fill="#fff"/><circle cx="348.59" cy="397.51" r="5.7" fill="#fff"/><circle cx="371.6" cy="397.51" r="5.7" fill="#fff"/><rect x="285.64" y="446.53" width="124.29" height="41.96" rx="20.98" fill="#bcbec0"/><path d="M581.93 436.1v-29s-7.94 14.38-24.58 13.33l-1.35 8.49s17.28 4.08 25.93 7.18ZM577.6 567s-6.36 3.39-8.64-23.76c0 0-53.36 7.87-78.47-7.17 0 0-9.8 1.14-6.79 9.25 0 0 40.73 11.87 67.88 33.74Z" fill="#2f2e41"/><path d="M577.6 567s-6.36 3.39-8.64-23.76c0 0-53.36 7.87-78.47-7.17 0 0-9.8 1.14-6.79 9.25 0 0 40.73 11.87 67.88 33.74Z" opacity=".2"/><path d="M475.41 622.85s-30.11-22-25.6-58.93a19.47 19.47 0 0 1 7-12.84c5.2-4.18 14-8.37 26.86-5.72 0 0 45.26 13.76 67.88 33.74l50.91 29s4.89 27.91-20.56 29.79l-47.69-18.1-20.74 2.26s-4.43-12.06-10.7-2.26l-23.24.38a4 4 0 0 0-4.12 2.68Z" fill="#2f2e41"/><path d="M475.41 622.85s-30.11-22-25.6-58.93a19.47 19.47 0 0 1 7-12.84c5.2-4.18 14-8.37 26.86-5.72 0 0 45.26 13.76 67.88 33.74l50.91 29s4.89 27.91-20.56 29.79l-47.69-18.1-20.74 2.26s-4.43-12.06-10.7-2.26l-23.24.38a4 4 0 0 0-4.12 2.68Z" fill="#fff" opacity=".08"/><path d="m583.52 564.19-31.94 14.91 50.91 29 18.1 9.81s59.21-21.88 52-54.31c0 0-1.51-30.92-44.5-15.46l-41.4 14.89c-1.02.42-2.15.69-3.17 1.16Zm-37.22 78.02s-12.44-11.44-12.06-22.38l37.18 14.11s-17.57 6.89-25.12 8.27Z" fill="#2f2e41"/><path d="M470.13 644.34s-6.41-10.93 5.28-21.49c0 0-.4-4.27 7.72-2.7l19.67-.32s15 8.08 4.4 32.59c0 0-29.91 5.12-37.07-8.08Zm55.98-23.62s-7.33 23.93 10.77 21.49c0 0-4.61 6.32-21 5.89 0 0 .63-8.41-2.42-26Zm111.07 0s-5.65 14.61-2.7 25.28c0 0-13.59 2.65-20.78-6.31l9.77-20.44Z" fill="#106bca"/><path d="M645.79 619c-2.6 3-8.94 12.63-3.58 30.76l-7.74-.31s-4.33-21.12 6-33.63a4.35 4.35 0 0 1 3.17-1.65 2.59 2.59 0 0 1 2.56 1.34 3.07 3.07 0 0 1-.41 3.49Zm-78.5-128.16 11.98-31.62 31.08 1.84-21.53 56.68h-29.49l7.96-26.9z" fill="#2f2e41"/><path d="M456.36 494.08S442.9 522.52 445.48 531c0 0 2.21 21.71 34.23 8.46l52.63-16.93 19.21-2.93a22.75 22.75 0 0 0 8.27-3l16.93-10.24a5.24 5.24 0 0 0 2.44-5.4l-1.4-7.81a5.23 5.23 0 0 0-7.42-3.78l-8.86 4.27a14.5 14.5 0 0 1-5.63 1.43l-12 .59 12.34-7.83a2.82 2.82 0 0 0-2.47-5 62.49 62.49 0 0 0-25.26 17.55 13.85 13.85 0 0 1-9.27 4.69c-11.9 1.09-37.66 3.58-41.32 5l7-10.68a54.54 54.54 0 0 1-16.23-1 53.73 53.73 0 0 1-12.31-4.31Zm140.97-3.16-1.73 9-8.42 5.46-5-11.34a4.79 4.79 0 0 1-.31-.9l-2.25-9.83a2.11 2.11 0 0 1 .74-2.14l9.73-4.5a1.29 1.29 0 0 1 1.72.65l5.4 12.12a2.56 2.56 0 0 1 .12 1.48Z" fill="#f9b499"/><path d="m586.26 499.88-1.42 17.86h8.32a4 4 0 0 0 4-4.21l-.94-16.74Z" fill="#f9b499"/><path d="M571.91 517.74s20.17 11.2 25-2.59Z" fill="#f9b499"/><path d="M513.5 622.09s5.55 15.1 1.67 29.39a5.91 5.91 0 0 1-3 3.81 3.14 3.14 0 0 1-3.56-.21 4 4 0 0 1-1.17-4.61c1.85-4.86 5.95-18.57-2.35-28.32a3.74 3.74 0 0 1 1-5.7c2.14-1.25 4.74-.45 7.41 5.64Z" fill="#2f2e41"/><path d="m556.65 424.73.7-4.34s-11.57-.91-18.48-13.33c0 0 .31 13.1 17.78 17.67Z" fill="#f4a48e"/><ellipse cx="561.56" cy="384.45" rx="36.19" ry="27.48" transform="rotate(-83.31 561.599 384.442)" fill="#f9b499"/><path d="M557.29 349.22S576 367.82 587.82 371c0 0 1.67 6.78 1.35 11.7 0 0 10.8-7.77 3.43-33.52 0 0-11.41-26.48-36.8-20.59 0 0-30.55 1-34.23 26.62 0 0-4.05 45.15-4.78 56.93 0 0 20.24 18.4 23.92 18.4 0 0-3.37-30.71-1.5-42l.76-16.48s14.4-8.13 17.32-22.84Z" fill="#2f2e41"/><ellipse cx="536.66" cy="378.44" rx="8.83" ry="10.55" fill="#f9b499"/></svg>
